<?xml version="1.0" standalone="no"?>
<!DOCTYPE svg PUBLIC "-//W3C//DTD SVG 20010904//EN"
 "http://www.w3.org/TR/2001/REC-SVG-20010904/DTD/svg10.dtd">
<svg version="1.0" xmlns="http://www.w3.org/2000/svg"
 width="300.000000pt" height="300.000000pt" viewBox="0 0 300.000000 300.000000"
 preserveAspectRatio="xMidYMid meet">
<metadata>
Created by potrace 1.11, written by Peter Selinger 2001-2013
</metadata>
<g transform="translate(0.000000,300.000000) scale(0.100000,-0.100000)"
fill="#000000" stroke="none">
<path d="M0 1500 l0 -1500 1500 0 1500 0 0 1500 0 1500 -1500 0 -1500 0 0
-1500z m1657 1239 c336 -46 632 -216 833 -479 501 -658 246 -1599 -520 -1917
-293 -122 -647 -122 -940 0 -700 291 -988 1117 -616 1772 248 439 751 691
1243 624z"/>
<path d="M1345 2649 c-167 -21 -381 -106 -520 -208 l-70 -51 745 0 745 0 -70
51 c-230 168 -536 244 -830 208z"/>
<path d="M707 2293 c-4 -3 -7 -342 -6 -752 l0 -746 374 745 c206 410 374 748
374 753 1 9 -733 10 -742 0z"/>
<path d="M1551 2293 c0 -5 168 -343 374 -753 l374 -745 -2 750 -2 750 -372 3
c-205 1 -373 -1 -372 -5z"/>
<path d="M557 2172 c-200 -278 -266 -659 -172 -989 33 -112 108 -268 174 -358
l51 -70 0 743 c0 408 -1 742 -2 742 -2 0 -25 -31 -51 -68z"/>
<path d="M2390 1500 l0 -745 51 70 c28 39 73 115 100 170 156 323 156 687 0
1010 -27 55 -72 131 -100 170 l-51 70 0 -745z"/>
<path d="M1132 1445 c-199 -399 -362 -727 -362 -730 0 -3 329 -5 730 -5 402 0
730 2 730 5 0 10 -725 1455 -730 1455 -3 0 -168 -326 -368 -725z"/>
<path d="M825 559 c39 -28 115 -73 170 -100 323 -156 687 -156 1010 0 55 27
131 72 170 100 l70 51 -745 0 -745 0 70 -51z"/>
</g>
</svg>
